Coordinates																																									
version=1																																									
nRows=12																																									
nColumns=42																																									
inDegrees=yes																																									
																																									
"Units are S.I. units (second, meters, Newtons, ...)"																																									
Angles are in degrees.																																									
																																									
endheader																																									
time	pelvis_tx	pelvis_ty	pelvis_tz	pelvis_tilt	pelvis_list	pelvis_rotation	hip_flexion_r	hip_adduction_r	hip_rotation_r	knee_angle_r	ankle_angle_r	subtalar_angle_r	mtp_angle_r	hip_flexion_l	hip_adduction_l	hip_rotation_l	knee_angle_l	ankle_angle_l	subtalar_angle_l	mtp_angle_l	lumbar_extension	lumbar_bending	lumbar_rotation	ground_force_vx	ground_force_vy	ground_force_vz	ground_force_px	ground_force_py	ground_force_pz	ground_force_vx	ground_force_vy	ground_force_vz	ground_force_px	ground_force_py	ground_force_pz	ground_torque_x	ground_torque_y	ground_torque_z	ground_torque_x	ground_torque_y	ground_torque_z
1.18	0.249438	0.603761	0.005942	-3.590012	-21.169674	84.282173	23.982493	1.561847	-7.615261	-72.14235	19.226798	0	0	67.518701	0.359359	-16.849293	-64.210929	15.562921	0	0	18.643705	-0.764792	-0.805872	0.77805	79.227646	-0.875035	0.234807	0.000089	0.291161	-7.070242	204.587906	46.861122	0.251625	-0.00781	-0.182843	0.000539	0.077768	-0.001383	-0.001523	0.115265	0.002211
1.19	0.250429	0.604285	-0.006984	-3.726744	-20.13965	84.546272	21.592222	1.56121	-6.660272	-71.38926	17.917623	0	0	65.845858	1.171795	-16.277799	-65.496672	16.904623	0	0	17.796601	-1.170674	-0.781949	0.458822	62.794479	5.462124	0.236587	0.000262	0.287016	-8.108498	234.008423	52.464005	0.252333	-0.008768	-0.184513	0.000862	0.124384	-0.002213	-0.001562	0.118227	0.002268
1.2	0.251406	0.604589	-0.019756	-3.873814	-19.263603	84.763031	19.405672	1.565819	-5.687479	-70.762078	16.718917	0	0	64.382627	1.937758	-15.708189	-66.845456	18.190438	0	0	17.076026	-1.554138	-0.731233	0.224518	48.420216	10.31435	0.238294	0.000744	0.281744	-8.968646	259.423096	56.861015	0.253607	-0.009587	-0.186272	0.001184	0.170889	-0.00304	-0.001979	0.14981	0.002874
1.21	0.252363	0.604605	-0.032156	-4.032662	-18.632929	84.909882	17.612203	1.57201	-4.714416	-70.331168	15.716091	0	0	63.239724	2.615343	-15.159786	-68.238767	19.339824	0	0	16.549041	-1.895064	-0.64885	0.092139	36.263695	13.25651	0.239868	0.00134	0.275012	-9.405799	280.840332	59.699085	0.255137	-0.010199	-0.187832	0.001471	0.21233	-0.003777	-0.002985	0.225918	0.004333
1.22	0.253285	0.60437	-0.044034	-4.222081	-18.267624	84.972015	16.302786	1.550321	-3.754099	-70.141111	14.964985	0	0	62.433468	3.196607	-14.661399	-69.629954	20.297384	0	0	16.220468	-2.199776	-0.536922	0.066235	26.235878	14.14264	0.24131	0.001861	0.266693	-9.222272	298.534393	60.877975	0.256674	-0.010591	-0.189061	0.001699	0.245333	-0.004364	-0.004705	0.356083	0.00683
1.23	0.254157	0.603979	-0.0553	-4.462183	-18.141155	84.943939	15.497704	1.467215	-2.818959	-70.211025	14.489864	0	0	61.919886	3.691465	-14.240167	-70.96281	21.034141	0	0	16.056337	-2.483856	-0.405454	0	0	0	0	0	0	-8.353048	312.795288	60.504604	0.258056	-0.010797	-0.18993	0	0	0	-0.007124	0.539202	0.010343
1.24	0.25497	0.603546	-0.065911	-4.756918	-18.208662	84.830032	15.179595	1.30984	-1.920961	-70.536812	14.284798	0	0	61.63325	4.107905	-13.909977	-72.190571	21.544558	0	0	16.009091	-2.753711	-0.271012	0	0	0	0	0	0	-6.899327	323.813782	58.83057	0.259206	-0.010863	-0.190466	0	0	0	-0.010072	0.762342	0.014623
1.25	0.255731	0.60317	-0.075853	-5.089248	-18.425245	84.64193	15.316523	1.095592	-1.067282	-71.095712	14.319058	0	0	61.510218	4.441691	-13.66903	-73.284658	21.841097	0	0	16.033791	-3.000294	-0.151263	0	0	0	0	0	0	-5.087749	331.708954	56.207973	0.260103	-0.010837	-0.190738	0	0	0	-0.013264	1.003958	0.019257
1.26	0.25646	0.602926	-0.085137	-5.428384	-18.753527	84.393906	15.873706	0.864813	-0.256736	-71.852586	14.546527	0	0	61.499406	4.67767	-13.505279	-74.234246	21.947971	0	0	16.095122	-3.204135	-0.058715	0	0	0	0	0	0	-3.188431	336.612488	52.993805	0.260762	-0.010755	-0.190823	0	0	0	-0.016368	1.238855	0.023763
1.27	0.257183	0.602866	-0.093792	-5.748056	-19.162407	84.099609	16.815565	0.655934	0.517768	-72.76721	14.917497	0	0	61.559129	4.80479	-13.407532	-75.037619	21.894472	0	0	16.16738	-3.350747	0.002158	0	0	0	0	0	0	-1.429687	338.736023	49.478149	0.261216	-0.010642	-0.190793	0	0	0	-0.019085	1.444482	0.027707
1.28	0.257911	0.603024	-0.101869	-6.043684	-19.62344	83.772118	18.104081	0.478986	1.261458	-73.800098	15.387982	0	0	61.651958	4.834508	-13.373965	-75.692266	21.709114	0	0	16.232313	-3.445274	0.034339	0	0	0	0	0	0	0.066756	338.396332	45.854443	0.261512	-0.010512	-0.190701	0	0	0	-0.021227	1.606632	0.030817
1.29	0.25863	0.603422	-0.109442	-6.332137	-20.110222	83.426353	19.698223	0.312119	1.972479	-74.914082	15.923377	0	0	61.743797	4.80376	-13.409734	-76.192522	21.416702	0	0	16.27771	-3.511552	0.04539	0	0	0	0	0	0	1.295348	336.0112	42.216251	0.261694	-0.010378	-0.190572	0	0	0	-0.022748	1.721723	0.033025
